<COLLADA xmlns="http://www.collada.org/2005/11/COLLADASchema" version="1.4.1">
  <asset>
    <created>2026-05-10T14:07:52.495845</created>
    <modified>2026-05-10T14:07:52.495850</modified>
    <up_axis>Y_UP</up_axis>
  </asset>
  <library_effects>
    <effect id="cca2ff4b50434e0bbb09008f86f7d276" name="cca2ff4b50434e0bbb09008f86f7d276">
      <profile_COMMON>
        <technique sid="common">
          <phong>
            <emission>
              <color>0.0 0.0 0.0 1.0</color>
            </emission>
            <ambient>
              <color>0.0 0.0 0.0 1.0</color>
            </ambient>
            <diffuse>
              <color>0.43137254901960786 0.43137254901960786 0.45098039215686275 1.0</color>
            </diffuse>
            <specular>
              <color>0.0 0.0 0.0 1.0</color>
            </specular>
            <shininess>
              <float>0.0</float>
            </shininess>
            <reflective>
              <color>0.0 0.0 0.0 1.0</color>
            </reflective>
            <reflectivity>
              <float>0.0</float>
            </reflectivity>
            <transparent>
              <color>0.0 0.0 0.0 1.0</color>
            </transparent>
            <transparency>
              <float>1.0</float>
            </transparency>
          </phong>
        </technique>
        <extra>
          <technique profile="GOOGLEEARTH">
            <double_sided>0</double_sided>
          </technique>
        </extra>
      </profile_COMMON>
    </effect>
  </library_effects>
  <library_geometries>
    <geometry id="96ec566aa5cd47e18301abe1777a4072" name="3bdeb9d990de4167a0fd2559fbc5778c">
      <mesh>
        <source id="verts-array">
          <float_array count="492" id="verts-array-array">0 0 0 0.1 0 0 0.1 0 0.03 0 0 0.03 0.09914449 0.01305262 0 0.09914449 0.01305262 0.03 0.09659258 0.0258819 0 0.09659258 0.0258819 0.03 0.09238795 0.03826834 0 0.09238795 0.03826834 0.03 0.08660254 0.05 0 0.08660254 0.05 0.03 0.07933533 0.06087614 0 0.07933533 0.06087614 0.03 0.07071068 0.07071068 0 0.07071068 0.07071068 0.03 0.06087614 0.07933533 0 0.06087614 0.07933533 0.03 0.05 0.08660254 0 0.05 0.08660254 0.03 0.03826834 0.09238795 0 0.03826834 0.09238795 0.03 0.0258819 0.09659258 0 0.0258819 0.09659258 0.03 0.01305262 0.09914449 0 0.01305262 0.09914449 0.03 6.123234e-18 0.1 0 6.123234e-18 0.1 0.03 -0.01305262 0.09914449 0 -0.01305262 0.09914449 0.03 -0.0258819 0.09659258 0 -0.0258819 0.09659258 0.03 -0.03826834 0.09238795 0 -0.03826834 0.09238795 0.03 -0.05 0.08660254 0 -0.05 0.08660254 0.03 -0.06087614 0.07933533 0 -0.06087614 0.07933533 0.03 -0.07071068 0.07071068 0 -0.07071068 0.07071068 0.03 -0.07933533 0.06087614 0 -0.07933533 0.06087614 0.03 -0.08660254 0.05 0 -0.08660254 0.05 0.03 -0.09238795 0.03826834 0 -0.09238795 0.03826834 0.03 -0.09659258 0.0258819 0 -0.09659258 0.0258819 0.03 -0.09914449 0.01305262 0 -0.09914449 0.01305262 0.03 -0.1 1.224647e-17 0 -0.1 1.224647e-17 0.03 -0.09914449 -0.01305262 0 -0.09914449 -0.01305262 0.03 -0.09659258 -0.0258819 0 -0.09659258 -0.0258819 0.03 -0.09238795 -0.03826834 0 -0.09238795 -0.03826834 0.03 -0.08660254 -0.05 0 -0.08660254 -0.05 0.03 -0.07933533 -0.06087614 0 -0.07933533 -0.06087614 0.03 -0.07071068 -0.07071068 0 -0.07071068 -0.07071068 0.03 -0.06087614 -0.07933533 0 -0.06087614 -0.07933533 0.03 -0.05 -0.08660254 0 -0.05 -0.08660254 0.03 -0.03826834 -0.09238795 0 -0.03826834 -0.09238795 0.03 -0.0258819 -0.09659258 0 -0.0258819 -0.09659258 0.03 -0.01305262 -0.09914449 0 -0.01305262 -0.09914449 0.03 -1.83697e-17 -0.1 0 -1.83697e-17 -0.1 0.03 0.01305262 -0.09914449 0 0.01305262 -0.09914449 0.03 0.0258819 -0.09659258 0 0.0258819 -0.09659258 0.03 0.03826834 -0.09238795 0 0.03826834 -0.09238795 0.03 0.05 -0.08660254 0 0.05 -0.08660254 0.03 0.06087614 -0.07933533 0 0.06087614 -0.07933533 0.03 0.07071068 -0.07071068 0 0.07071068 -0.07071068 0.03 0.07933533 -0.06087614 0 0.07933533 -0.06087614 0.03 0.08660254 -0.05 0 0.08660254 -0.05 0.03 0.09238795 -0.03826834 0 0.09238795 -0.03826834 0.03 0.09659258 -0.0258819 0 0.09659258 -0.0258819 0.03 0.09914449 -0.01305262 0 0.09914449 -0.01305262 0.03 0 0 0.03 0.04 0 0.03 0.04 0 0.5 0 0 0.5 0.03923141 0.007803613 0.03 0.03923141 0.007803613 0.5 0.03695518 0.01530734 0.03 0.03695518 0.01530734 0.5 0.03325878 0.02222281 0.03 0.03325878 0.02222281 0.5 0.02828427 0.02828427 0.03 0.02828427 0.02828427 0.5 0.02222281 0.03325878 0.03 0.02222281 0.03325878 0.5 0.01530734 0.03695518 0.03 0.01530734 0.03695518 0.5 0.007803613 0.03923141 0.03 0.007803613 0.03923141 0.5 2.449294e-18 0.04 0.03 2.449294e-18 0.04 0.5 -0.007803613 0.03923141 0.03 -0.007803613 0.03923141 0.5 -0.01530734 0.03695518 0.03 -0.01530734 0.03695518 0.5 -0.02222281 0.03325878 0.03 -0.02222281 0.03325878 0.5 -0.02828427 0.02828427 0.03 -0.02828427 0.02828427 0.5 -0.03325878 0.02222281 0.03 -0.03325878 0.02222281 0.5 -0.03695518 0.01530734 0.03 -0.03695518 0.01530734 0.5 -0.03923141 0.007803613 0.03 -0.03923141 0.007803613 0.5 -0.04 4.898587e-18 0.03 -0.04 4.898587e-18 0.5 -0.03923141 -0.007803613 0.03 -0.03923141 -0.007803613 0.5 -0.03695518 -0.01530734 0.03 -0.03695518 -0.01530734 0.5 -0.03325878 -0.02222281 0.03 -0.03325878 -0.02222281 0.5 -0.02828427 -0.02828427 0.03 -0.02828427 -0.02828427 0.5 -0.02222281 -0.03325878 0.03 -0.02222281 -0.03325878 0.5 -0.01530734 -0.03695518 0.03 -0.01530734 -0.03695518 0.5 -0.007803613 -0.03923141 0.03 -0.007803613 -0.03923141 0.5 -7.347881e-18 -0.04 0.03 -7.347881e-18 -0.04 0.5 0.007803613 -0.03923141 0.03 0.007803613 -0.03923141 0.5 0.01530734 -0.03695518 0.03 0.01530734 -0.03695518 0.5 0.02222281 -0.03325878 0.03 0.02222281 -0.03325878 0.5 0.02828427 -0.02828427 0.03 0.02828427 -0.02828427 0.5 0.03325878 -0.02222281 0.03 0.03325878 -0.02222281 0.5 0.03695518 -0.01530734 0.03 0.03695518 -0.01530734 0.5 0.03923141 -0.007803613 0.03 0.03923141 -0.007803613 0.5</float_array>
          <technique_common>
            <accessor count="164" source="#verts-array-array" stride="3">
              <param type="float" name="X"/>
              <param type="float" name="Y"/>
              <param type="float" name="Z"/>
            </accessor>
          </technique_common>
        </source>
        <source id="normals-array">
          <float_array count="492" id="normals-array-array">0 0 -1 0.7212469 -1.939686e-16 -0.692678 0.7212469 -2.075384e-16 0.692678 0 0 1 0.7150766 0.09414161 -0.692678 0.7150766 0.09414161 0.692678 0.696671 0.1866724 -0.692678 0.696671 0.1866724 0.692678 0.6663453 0.2760092 -0.692678 0.6663453 0.2760092 0.692678 0.6246182 0.3606235 -0.692678 0.6246182 0.3606235 0.692678 0.5722037 0.4390673 -0.692678 0.5722037 0.4390673 0.692678 0.5099986 0.5099986 -0.692678 0.5099986 0.5099986 0.692678 0.4390673 0.5722037 -0.692678 0.4390673 0.5722037 0.692678 0.3606235 0.6246182 -0.692678 0.3606235 0.6246182 0.692678 0.2760092 0.6663453 -0.692678 0.2760092 0.6663453 0.692678 0.1866724 0.696671 -0.692678 0.1866724 0.696671 0.692678 0.09414161 0.7150766 -0.692678 0.09414161 0.7150766 0.692678 3.416402e-16 0.7212469 -0.692678 3.512189e-16 0.7212469 0.692678 -0.09414161 0.7150766 -0.692678 -0.09414161 0.7150766 0.692678 -0.1866724 0.696671 -0.692678 -0.1866724 0.696671 0.692678 -0.2760092 0.6663453 -0.692678 -0.2760092 0.6663453 0.692678 -0.3606235 0.6246182 -0.692678 -0.3606235 0.6246182 0.692678 -0.4390673 0.5722037 -0.692678 -0.4390673 0.5722037 0.692678 -0.5099986 0.5099986 -0.692678 -0.5099986 0.5099986 0.692678 -0.5722037 0.4390673 -0.692678 -0.5722037 0.4390673 0.692678 -0.6246182 0.3606235 -0.692678 -0.6246182 0.3606235 0.692678 -0.6663453 0.2760092 -0.692678 -0.6663453 0.2760092 0.692678 -0.696671 0.1866724 -0.692678 -0.696671 0.1866724 0.692678 -0.7150766 0.09414161 -0.692678 -0.7150766 0.09414161 0.692678 -0.7212469 3.192899e-16 -0.692678 -0.7212469 3.033254e-16 0.692678 -0.7150766 -0.09414161 -0.692678 -0.7150766 -0.09414161 0.692678 -0.696671 -0.1866724 -0.692678 -0.696671 -0.1866724 0.692678 -0.6663453 -0.2760092 -0.692678 -0.6663453 -0.2760092 0.692678 -0.6246182 -0.3606235 -0.692678 -0.6246182 -0.3606235 0.692678 -0.5722037 -0.4390673 -0.692678 -0.5722037 -0.4390673 0.692678 -0.5099986 -0.5099986 -0.692678 -0.5099986 -0.5099986 0.692678 -0.4390673 -0.5722037 -0.692678 -0.4390673 -0.5722037 0.692678 -0.3606235 -0.6246182 -0.692678 -0.3606235 -0.6246182 0.692678 -0.2760092 -0.6663453 -0.692678 -0.2760092 -0.6663453 0.692678 -0.1866724 -0.696671 -0.692678 -0.1866724 -0.696671 0.692678 -0.09414161 -0.7150766 -0.692678 -0.09414161 -0.7150766 0.692678 -6.162295e-16 -0.7212469 -0.692678 -6.162295e-16 -0.7212469 0.692678 0.09414161 -0.7150766 -0.692678 0.09414161 -0.7150766 0.692678 0.1866724 -0.696671 -0.692678 0.1866724 -0.696671 0.692678 0.2760092 -0.6663453 -0.692678 0.2760092 -0.6663453 0.692678 0.3606235 -0.6246182 -0.692678 0.3606235 -0.6246182 0.692678 0.4390673 -0.5722037 -0.692678 0.4390673 -0.5722037 0.692678 0.5099986 -0.5099986 -0.692678 0.5099986 -0.5099986 0.692678 0.5722037 -0.4390673 -0.692678 0.5722037 -0.4390673 0.692678 0.6246182 -0.3606235 -0.692678 0.6246182 -0.3606235 0.692678 0.6663453 -0.2760092 -0.692678 0.6663453 -0.2760092 0.692678 0.696671 -0.1866724 -0.692678 0.696671 -0.1866724 0.692678 0.7150766 -0.09414161 -0.692678 0.7150766 -0.09414161 0.692678 0 0 -1 0.7278876 -4.786863e-16 -0.6856965 0.7278876 2.584765e-17 0.6856965 0 0 1 0.7139015 0.1420038 -0.6856965 0.7139015 0.1420038 0.6856965 0.6724805 0.2785505 -0.6856965 0.6724805 0.2785505 0.6856965 0.6052164 0.4043927 -0.6856965 0.6052164 0.4043927 0.6856965 0.5146943 0.5146943 -0.6856965 0.5146943 0.5146943 0.6856965 0.4043927 0.6052164 -0.6856965 0.4043927 0.6052164 0.6856965 0.2785505 0.6724805 -0.6856965 0.2785505 0.6724805 0.6856965 0.1420038 0.7139015 -0.6856965 0.1420038 0.7139015 0.6856965 2.584765e-16 0.7278876 -0.6856965 -2.584765e-16 0.7278876 0.6856965 -0.1420038 0.7139015 -0.6856965 -0.1420038 0.7139015 0.6856965 -0.2785505 0.6724805 -0.6856965 -0.2785505 0.6724805 0.6856965 -0.4043927 0.6052164 -0.6856965 -0.4043927 0.6052164 0.6856965 -0.5146943 0.5146943 -0.6856965 -0.5146943 0.5146943 0.6856965 -0.6052164 0.4043927 -0.6856965 -0.6052164 0.4043927 0.6856965 -0.6724805 0.2785505 -0.6856965 -0.6724805 0.2785505 0.6856965 -0.7139015 0.1420038 -0.6856965 -0.7139015 0.1420038 0.6856965 -0.7278876 2.584765e-16 -0.6856965 -0.7278876 -2.584765e-16 0.6856965 -0.7139015 -0.1420038 -0.6856965 -0.7139015 -0.1420038 0.6856965 -0.6724805 -0.2785505 -0.6856965 -0.6724805 -0.2785505 0.6856965 -0.6052164 -0.4043927 -0.6856965 -0.6052164 -0.4043927 0.6856965 -0.5146943 -0.5146943 -0.6856965 -0.5146943 -0.5146943 0.6856965 -0.4043927 -0.6052164 -0.6856965 -0.4043927 -0.6052164 0.6856965 -0.2785505 -0.6724805 -0.6856965 -0.2785505 -0.6724805 0.6856965 -0.1420038 -0.7139015 -0.6856965 -0.1420038 -0.7139015 0.6856965 -5.751101e-16 -0.7278876 -0.6856965 -5.81572e-17 -0.7278876 0.6856965 0.1420038 -0.7139015 -0.6856965 0.1420038 -0.7139015 0.6856965 0.2785505 -0.6724805 -0.6856965 0.2785505 -0.6724805 0.6856965 0.4043927 -0.6052164 -0.6856965 0.4043927 -0.6052164 0.6856965 0.5146943 -0.5146943 -0.6856965 0.5146943 -0.5146943 0.6856965 0.6052164 -0.4043927 -0.6856965 0.6052164 -0.4043927 0.6856965 0.6724805 -0.2785505 -0.6856965 0.6724805 -0.2785505 0.6856965 0.7139015 -0.1420038 -0.6856965 0.7139015 -0.1420038 0.6856965</float_array>
          <technique_common>
            <accessor count="164" source="#normals-array-array" stride="3">
              <param type="float" name="X"/>
              <param type="float" name="Y"/>
              <param type="float" name="Z"/>
            </accessor>
          </technique_common>
        </source>
        <vertices id="verts-array-vertices">
          <input semantic="POSITION" source="#verts-array"/>
        </vertices>
        <triangles count="320" material="material0">
          <input offset="0" semantic="VERTEX" source="#verts-array-vertices"/>
          <input offset="1" semantic="NORMAL" source="#normals-array"/>
          <p>1 1 0 0 4 4 1 1 4 4 2 2 2 2 4 4 5 5 2 2 5 5 3 3 4 4 0 0 6 6 4 4 6 6 5 5 5 5 6 6 7 7 5 5 7 7 3 3 6 6 0 0 8 8 6 6 8 8 7 7 7 7 8 8 9 9 7 7 9 9 3 3 8 8 0 0 10 10 8 8 10 10 9 9 9 9 10 10 11 11 9 9 11 11 3 3 10 10 0 0 12 12 10 10 12 12 11 11 11 11 12 12 13 13 11 11 13 13 3 3 12 12 0 0 14 14 12 12 14 14 13 13 13 13 14 14 15 15 13 13 15 15 3 3 14 14 0 0 16 16 14 14 16 16 15 15 15 15 16 16 17 17 15 15 17 17 3 3 16 16 0 0 18 18 16 16 18 18 17 17 17 17 18 18 19 19 17 17 19 19 3 3 18 18 0 0 20 20 18 18 20 20 19 19 19 19 20 20 21 21 19 19 21 21 3 3 20 20 0 0 22 22 20 20 22 22 21 21 21 21 22 22 23 23 21 21 23 23 3 3 22 22 0 0 24 24 22 22 24 24 23 23 23 23 24 24 25 25 23 23 25 25 3 3 24 24 0 0 26 26 24 24 26 26 25 25 25 25 26 26 27 27 25 25 27 27 3 3 26 26 0 0 28 28 26 26 28 28 27 27 27 27 28 28 29 29 27 27 29 29 3 3 28 28 0 0 30 30 28 28 30 30 29 29 29 29 30 30 31 31 29 29 31 31 3 3 30 30 0 0 32 32 30 30 32 32 31 31 31 31 32 32 33 33 31 31 33 33 3 3 32 32 0 0 34 34 32 32 34 34 33 33 33 33 34 34 35 35 33 33 35 35 3 3 34 34 0 0 36 36 34 34 36 36 35 35 35 35 36 36 37 37 35 35 37 37 3 3 36 36 0 0 38 38 36 36 38 38 37 37 37 37 38 38 39 39 37 37 39 39 3 3 38 38 0 0 40 40 38 38 40 40 39 39 39 39 40 40 41 41 39 39 41 41 3 3 40 40 0 0 42 42 40 40 42 42 41 41 41 41 42 42 43 43 41 41 43 43 3 3 42 42 0 0 44 44 42 42 44 44 43 43 43 43 44 44 45 45 43 43 45 45 3 3 44 44 0 0 46 46 44 44 46 46 45 45 45 45 46 46 47 47 45 45 47 47 3 3 46 46 0 0 48 48 46 46 48 48 47 47 47 47 48 48 49 49 47 47 49 49 3 3 48 48 0 0 50 50 48 48 50 50 49 49 49 49 50 50 51 51 49 49 51 51 3 3 50 50 0 0 52 52 50 50 52 52 51 51 51 51 52 52 53 53 51 51 53 53 3 3 52 52 0 0 54 54 52 52 54 54 53 53 53 53 54 54 55 55 53 53 55 55 3 3 54 54 0 0 56 56 54 54 56 56 55 55 55 55 56 56 57 57 55 55 57 57 3 3 56 56 0 0 58 58 56 56 58 58 57 57 57 57 58 58 59 59 57 57 59 59 3 3 58 58 0 0 60 60 58 58 60 60 59 59 59 59 60 60 61 61 59 59 61 61 3 3 60 60 0 0 62 62 60 60 62 62 61 61 61 61 62 62 63 63 61 61 63 63 3 3 62 62 0 0 64 64 62 62 64 64 63 63 63 63 64 64 65 65 63 63 65 65 3 3 64 64 0 0 66 66 64 64 66 66 65 65 65 65 66 66 67 67 65 65 67 67 3 3 66 66 0 0 68 68 66 66 68 68 67 67 67 67 68 68 69 69 67 67 69 69 3 3 68 68 0 0 70 70 68 68 70 70 69 69 69 69 70 70 71 71 69 69 71 71 3 3 70 70 0 0 72 72 70 70 72 72 71 71 71 71 72 72 73 73 71 71 73 73 3 3 72 72 0 0 74 74 72 72 74 74 73 73 73 73 74 74 75 75 73 73 75 75 3 3 74 74 0 0 76 76 74 74 76 76 75 75 75 75 76 76 77 77 75 75 77 77 3 3 76 76 0 0 78 78 76 76 78 78 77 77 77 77 78 78 79 79 77 77 79 79 3 3 78 78 0 0 80 80 78 78 80 80 79 79 79 79 80 80 81 81 79 79 81 81 3 3 80 80 0 0 82 82 80 80 82 82 81 81 81 81 82 82 83 83 81 81 83 83 3 3 82 82 0 0 84 84 82 82 84 84 83 83 83 83 84 84 85 85 83 83 85 85 3 3 84 84 0 0 86 86 84 84 86 86 85 85 85 85 86 86 87 87 85 85 87 87 3 3 86 86 0 0 88 88 86 86 88 88 87 87 87 87 88 88 89 89 87 87 89 89 3 3 88 88 0 0 90 90 88 88 90 90 89 89 89 89 90 90 91 91 89 89 91 91 3 3 90 90 0 0 92 92 90 90 92 92 91 91 91 91 92 92 93 93 91 91 93 93 3 3 92 92 0 0 94 94 92 92 94 94 93 93 93 93 94 94 95 95 93 93 95 95 3 3 94 94 0 0 96 96 94 94 96 96 95 95 95 95 96 96 97 97 95 95 97 97 3 3 96 96 0 0 1 1 96 96 1 1 97 97 97 97 1 1 2 2 97 97 2 2 3 3 99 99 98 98 102 102 99 99 102 102 100 100 100 100 102 102 103 103 100 100 103 103 101 101 102 102 98 98 104 104 102 102 104 104 103 103 103 103 104 104 105 105 103 103 105 105 101 101 104 104 98 98 106 106 104 104 106 106 105 105 105 105 106 106 107 107 105 105 107 107 101 101 106 106 98 98 108 108 106 106 108 108 107 107 107 107 108 108 109 109 107 107 109 109 101 101 108 108 98 98 110 110 108 108 110 110 109 109 109 109 110 110 111 111 109 109 111 111 101 101 110 110 98 98 112 112 110 110 112 112 111 111 111 111 112 112 113 113 111 111 113 113 101 101 112 112 98 98 114 114 112 112 114 114 113 113 113 113 114 114 115 115 113 113 115 115 101 101 114 114 98 98 116 116 114 114 116 116 115 115 115 115 116 116 117 117 115 115 117 117 101 101 116 116 98 98 118 118 116 116 118 118 117 117 117 117 118 118 119 119 117 117 119 119 101 101 118 118 98 98 120 120 118 118 120 120 119 119 119 119 120 120 121 121 119 119 121 121 101 101 120 120 98 98 122 122 120 120 122 122 121 121 121 121 122 122 123 123 121 121 123 123 101 101 122 122 98 98 124 124 122 122 124 124 123 123 123 123 124 124 125 125 123 123 125 125 101 101 124 124 98 98 126 126 124 124 126 126 125 125 125 125 126 126 127 127 125 125 127 127 101 101 126 126 98 98 128 128 126 126 128 128 127 127 127 127 128 128 129 129 127 127 129 129 101 101 128 128 98 98 130 130 128 128 130 130 129 129 129 129 130 130 131 131 129 129 131 131 101 101 130 130 98 98 132 132 130 130 132 132 131 131 131 131 132 132 133 133 131 131 133 133 101 101 132 132 98 98 134 134 132 132 134 134 133 133 133 133 134 134 135 135 133 133 135 135 101 101 134 134 98 98 136 136 134 134 136 136 135 135 135 135 136 136 137 137 135 135 137 137 101 101 136 136 98 98 138 138 136 136 138 138 137 137 137 137 138 138 139 139 137 137 139 139 101 101 138 138 98 98 140 140 138 138 140 140 139 139 139 139 140 140 141 141 139 139 141 141 101 101 140 140 98 98 142 142 140 140 142 142 141 141 141 141 142 142 143 143 141 141 143 143 101 101 142 142 98 98 144 144 142 142 144 144 143 143 143 143 144 144 145 145 143 143 145 145 101 101 144 144 98 98 146 146 144 144 146 146 145 145 145 145 146 146 147 147 145 145 147 147 101 101 146 146 98 98 148 148 146 146 148 148 147 147 147 147 148 148 149 149 147 147 149 149 101 101 148 148 98 98 150 150 148 148 150 150 149 149 149 149 150 150 151 151 149 149 151 151 101 101 150 150 98 98 152 152 150 150 152 152 151 151 151 151 152 152 153 153 151 151 153 153 101 101 152 152 98 98 154 154 152 152 154 154 153 153 153 153 154 154 155 155 153 153 155 155 101 101 154 154 98 98 156 156 154 154 156 156 155 155 155 155 156 156 157 157 155 155 157 157 101 101 156 156 98 98 158 158 156 156 158 158 157 157 157 157 158 158 159 159 157 157 159 159 101 101 158 158 98 98 160 160 158 158 160 160 159 159 159 159 160 160 161 161 159 159 161 161 101 101 160 160 98 98 162 162 160 160 162 162 161 161 161 161 162 162 163 163 161 161 163 163 101 101 162 162 98 98 99 99 162 162 99 99 163 163 163 163 99 99 100 100 163 163 100 100 101 101</p>
        </triangles>
      </mesh>
    </geometry>
  </library_geometries>
  <library_materials>
    <material id="c8f5e7fa60ca436484070b3e912899c4" name="defaultmaterial">
      <instance_effect url="#cca2ff4b50434e0bbb09008f86f7d276"/>
    </material>
  </library_materials>
  <library_visual_scenes>
    <visual_scene id="scene">
      <node id="node0" name="node0">
        <instance_geometry url="#96ec566aa5cd47e18301abe1777a4072">
          <bind_material>
            <technique_common>
              <instance_material symbol="material0" target="#c8f5e7fa60ca436484070b3e912899c4"/>
            </technique_common>
          </bind_material>
        </instance_geometry>
      </node>
    </visual_scene>
  </library_visual_scenes>
  <scene>
    <instance_visual_scene url="#scene"/>
  </scene>
</COLLADA>
