<COLLADA xmlns="http://www.collada.org/2005/11/COLLADASchema" version="1.4.1">
  <asset>
    <created>2026-05-10T14:32:38.155208</created>
    <modified>2026-05-10T14:32:38.155211</modified>
    <up_axis>Y_UP</up_axis>
  </asset>
  <library_effects>
    <effect id="e3fcf68171c3499a85dd4c9e6398a399" name="e3fcf68171c3499a85dd4c9e6398a399">
      <profile_COMMON>
        <technique sid="common">
          <phong>
            <emission>
              <color>0.0 0.0 0.0 1.0</color>
            </emission>
            <ambient>
              <color>0.0 0.0 0.0 1.0</color>
            </ambient>
            <diffuse>
              <color>0.8627450980392157 0.8627450980392157 0.8823529411764706 1.0</color>
            </diffuse>
            <specular>
              <color>0.0 0.0 0.0 1.0</color>
            </specular>
            <shininess>
              <float>0.0</float>
            </shininess>
            <reflective>
              <color>0.0 0.0 0.0 1.0</color>
            </reflective>
            <reflectivity>
              <float>0.0</float>
            </reflectivity>
            <transparent>
              <color>0.0 0.0 0.0 1.0</color>
            </transparent>
            <transparency>
              <float>1.0</float>
            </transparency>
          </phong>
        </technique>
        <extra>
          <technique profile="GOOGLEEARTH">
            <double_sided>0</double_sided>
          </technique>
        </extra>
      </profile_COMMON>
    </effect>
  </library_effects>
  <library_geometries>
    <geometry id="56b95bfbd6244e848e3a9d4b0a9b4711" name="eea1d49a3edd41dea214689d3fa4a4a9">
      <mesh>
        <source id="verts-array">
          <float_array count="198" id="verts-array-array">0 0 -0.4 0.025 0 -0.4 0.025 0 -0.05 0 0 -0.05 0.02451963 0.004877258 -0.4 0.02451963 0.004877258 -0.05 0.02309699 0.009567086 -0.4 0.02309699 0.009567086 -0.05 0.02078674 0.01388926 -0.4 0.02078674 0.01388926 -0.05 0.01767767 0.01767767 -0.4 0.01767767 0.01767767 -0.05 0.01388926 0.02078674 -0.4 0.01388926 0.02078674 -0.05 0.009567086 0.02309699 -0.4 0.009567086 0.02309699 -0.05 0.004877258 0.02451963 -0.4 0.004877258 0.02451963 -0.05 1.530808e-18 0.025 -0.4 1.530808e-18 0.025 -0.05 -0.004877258 0.02451963 -0.4 -0.004877258 0.02451963 -0.05 -0.009567086 0.02309699 -0.4 -0.009567086 0.02309699 -0.05 -0.01388926 0.02078674 -0.4 -0.01388926 0.02078674 -0.05 -0.01767767 0.01767767 -0.4 -0.01767767 0.01767767 -0.05 -0.02078674 0.01388926 -0.4 -0.02078674 0.01388926 -0.05 -0.02309699 0.009567086 -0.4 -0.02309699 0.009567086 -0.05 -0.02451963 0.004877258 -0.4 -0.02451963 0.004877258 -0.05 -0.025 3.061617e-18 -0.4 -0.025 3.061617e-18 -0.05 -0.02451963 -0.004877258 -0.4 -0.02451963 -0.004877258 -0.05 -0.02309699 -0.009567086 -0.4 -0.02309699 -0.009567086 -0.05 -0.02078674 -0.01388926 -0.4 -0.02078674 -0.01388926 -0.05 -0.01767767 -0.01767767 -0.4 -0.01767767 -0.01767767 -0.05 -0.01388926 -0.02078674 -0.4 -0.01388926 -0.02078674 -0.05 -0.009567086 -0.02309699 -0.4 -0.009567086 -0.02309699 -0.05 -0.004877258 -0.02451963 -0.4 -0.004877258 -0.02451963 -0.05 -4.592425e-18 -0.025 -0.4 -4.592425e-18 -0.025 -0.05 0.004877258 -0.02451963 -0.4 0.004877258 -0.02451963 -0.05 0.009567086 -0.02309699 -0.4 0.009567086 -0.02309699 -0.05 0.01388926 -0.02078674 -0.4 0.01388926 -0.02078674 -0.05 0.01767767 -0.01767767 -0.4 0.01767767 -0.01767767 -0.05 0.02078674 -0.01388926 -0.4 0.02078674 -0.01388926 -0.05 0.02309699 -0.009567086 -0.4 0.02309699 -0.009567086 -0.05 0.02451963 -0.004877258 -0.4 0.02451963 -0.004877258 -0.05</float_array>
          <technique_common>
            <accessor count="66" source="#verts-array-array" stride="3">
              <param type="float" name="X"/>
              <param type="float" name="Y"/>
              <param type="float" name="Z"/>
            </accessor>
          </technique_common>
        </source>
        <source id="normals-array">
          <float_array count="198" id="normals-array-array">0 0 -1 0.7278876 -1.341856e-16 -0.6856965 0.7278876 -2.003193e-16 0.6856965 0 0 1 0.7139015 0.1420038 -0.6856965 0.7139015 0.1420038 0.6856965 0.6724805 0.2785505 -0.6856965 0.6724805 0.2785505 0.6856965 0.6052164 0.4043927 -0.6856965 0.6052164 0.4043927 0.6856965 0.5146943 0.5146943 -0.6856965 0.5146943 0.5146943 0.6856965 0.4043927 0.6052164 -0.6856965 0.4043927 0.6052164 0.6856965 0.2785505 0.6724805 -0.6856965 0.2785505 0.6724805 0.6856965 0.1420038 0.7139015 -0.6856965 0.1420038 0.7139015 0.6856965 -3.230956e-17 0.7278876 -0.6856965 3.230956e-17 0.7278876 0.6856965 -0.1420038 0.7139015 -0.6856965 -0.1420038 0.7139015 0.6856965 -0.2785505 0.6724805 -0.6856965 -0.2785505 0.6724805 0.6856965 -0.4043927 0.6052164 -0.6856965 -0.4043927 0.6052164 0.6856965 -0.5146943 0.5146943 -0.6856965 -0.5146943 0.5146943 0.6856965 -0.6052164 0.4043927 -0.6856965 -0.6052164 0.4043927 0.6856965 -0.6724805 0.2785505 -0.6856965 -0.6724805 0.2785505 0.6856965 -0.7139015 0.1420038 -0.6856965 -0.7139015 0.1420038 0.6856965 -0.7278876 -2.584765e-17 -0.6856965 -0.7278876 3.877147e-17 0.6856965 -0.7139015 -0.1420038 -0.6856965 -0.7139015 -0.1420038 0.6856965 -0.6724805 -0.2785505 -0.6856965 -0.6724805 -0.2785505 0.6856965 -0.6052164 -0.4043927 -0.6856965 -0.6052164 -0.4043927 0.6856965 -0.5146943 -0.5146943 -0.6856965 -0.5146943 -0.5146943 0.6856965 -0.4043927 -0.6052164 -0.6856965 -0.4043927 -0.6052164 0.6856965 -0.2785505 -0.6724805 -0.6856965 -0.2785505 -0.6724805 0.6856965 -0.1420038 -0.7139015 -0.6856965 -0.1420038 -0.7139015 0.6856965 -2.326288e-16 -0.7278876 -0.6856965 -2.972479e-16 -0.7278876 0.6856965 0.1420038 -0.7139015 -0.6856965 0.1420038 -0.7139015 0.6856965 0.2785505 -0.6724805 -0.6856965 0.2785505 -0.6724805 0.6856965 0.4043927 -0.6052164 -0.6856965 0.4043927 -0.6052164 0.6856965 0.5146943 -0.5146943 -0.6856965 0.5146943 -0.5146943 0.6856965 0.6052164 -0.4043927 -0.6856965 0.6052164 -0.4043927 0.6856965 0.6724805 -0.2785505 -0.6856965 0.6724805 -0.2785505 0.6856965 0.7139015 -0.1420038 -0.6856965 0.7139015 -0.1420038 0.6856965</float_array>
          <technique_common>
            <accessor count="66" source="#normals-array-array" stride="3">
              <param type="float" name="X"/>
              <param type="float" name="Y"/>
              <param type="float" name="Z"/>
            </accessor>
          </technique_common>
        </source>
        <vertices id="verts-array-vertices">
          <input semantic="POSITION" source="#verts-array"/>
        </vertices>
        <triangles count="128" material="material0">
          <input offset="0" semantic="VERTEX" source="#verts-array-vertices"/>
          <input offset="1" semantic="NORMAL" source="#normals-array"/>
          <p>1 1 0 0 4 4 1 1 4 4 2 2 2 2 4 4 5 5 2 2 5 5 3 3 4 4 0 0 6 6 4 4 6 6 5 5 5 5 6 6 7 7 5 5 7 7 3 3 6 6 0 0 8 8 6 6 8 8 7 7 7 7 8 8 9 9 7 7 9 9 3 3 8 8 0 0 10 10 8 8 10 10 9 9 9 9 10 10 11 11 9 9 11 11 3 3 10 10 0 0 12 12 10 10 12 12 11 11 11 11 12 12 13 13 11 11 13 13 3 3 12 12 0 0 14 14 12 12 14 14 13 13 13 13 14 14 15 15 13 13 15 15 3 3 14 14 0 0 16 16 14 14 16 16 15 15 15 15 16 16 17 17 15 15 17 17 3 3 16 16 0 0 18 18 16 16 18 18 17 17 17 17 18 18 19 19 17 17 19 19 3 3 18 18 0 0 20 20 18 18 20 20 19 19 19 19 20 20 21 21 19 19 21 21 3 3 20 20 0 0 22 22 20 20 22 22 21 21 21 21 22 22 23 23 21 21 23 23 3 3 22 22 0 0 24 24 22 22 24 24 23 23 23 23 24 24 25 25 23 23 25 25 3 3 24 24 0 0 26 26 24 24 26 26 25 25 25 25 26 26 27 27 25 25 27 27 3 3 26 26 0 0 28 28 26 26 28 28 27 27 27 27 28 28 29 29 27 27 29 29 3 3 28 28 0 0 30 30 28 28 30 30 29 29 29 29 30 30 31 31 29 29 31 31 3 3 30 30 0 0 32 32 30 30 32 32 31 31 31 31 32 32 33 33 31 31 33 33 3 3 32 32 0 0 34 34 32 32 34 34 33 33 33 33 34 34 35 35 33 33 35 35 3 3 34 34 0 0 36 36 34 34 36 36 35 35 35 35 36 36 37 37 35 35 37 37 3 3 36 36 0 0 38 38 36 36 38 38 37 37 37 37 38 38 39 39 37 37 39 39 3 3 38 38 0 0 40 40 38 38 40 40 39 39 39 39 40 40 41 41 39 39 41 41 3 3 40 40 0 0 42 42 40 40 42 42 41 41 41 41 42 42 43 43 41 41 43 43 3 3 42 42 0 0 44 44 42 42 44 44 43 43 43 43 44 44 45 45 43 43 45 45 3 3 44 44 0 0 46 46 44 44 46 46 45 45 45 45 46 46 47 47 45 45 47 47 3 3 46 46 0 0 48 48 46 46 48 48 47 47 47 47 48 48 49 49 47 47 49 49 3 3 48 48 0 0 50 50 48 48 50 50 49 49 49 49 50 50 51 51 49 49 51 51 3 3 50 50 0 0 52 52 50 50 52 52 51 51 51 51 52 52 53 53 51 51 53 53 3 3 52 52 0 0 54 54 52 52 54 54 53 53 53 53 54 54 55 55 53 53 55 55 3 3 54 54 0 0 56 56 54 54 56 56 55 55 55 55 56 56 57 57 55 55 57 57 3 3 56 56 0 0 58 58 56 56 58 58 57 57 57 57 58 58 59 59 57 57 59 59 3 3 58 58 0 0 60 60 58 58 60 60 59 59 59 59 60 60 61 61 59 59 61 61 3 3 60 60 0 0 62 62 60 60 62 62 61 61 61 61 62 62 63 63 61 61 63 63 3 3 62 62 0 0 64 64 62 62 64 64 63 63 63 63 64 64 65 65 63 63 65 65 3 3 64 64 0 0 1 1 64 64 1 1 65 65 65 65 1 1 2 2 65 65 2 2 3 3</p>
        </triangles>
      </mesh>
    </geometry>
  </library_geometries>
  <library_materials>
    <material id="e98fda9968ab44acabd19b18fd1b5ba3" name="defaultmaterial">
      <instance_effect url="#e3fcf68171c3499a85dd4c9e6398a399"/>
    </material>
  </library_materials>
  <library_visual_scenes>
    <visual_scene id="scene">
      <node id="node0" name="node0">
        <instance_geometry url="#56b95bfbd6244e848e3a9d4b0a9b4711">
          <bind_material>
            <technique_common>
              <instance_material symbol="material0" target="#e98fda9968ab44acabd19b18fd1b5ba3"/>
            </technique_common>
          </bind_material>
        </instance_geometry>
      </node>
    </visual_scene>
  </library_visual_scenes>
  <scene>
    <instance_visual_scene url="#scene"/>
  </scene>
</COLLADA>
