<COLLADA xmlns="http://www.collada.org/2005/11/COLLADASchema" version="1.4.1">
  <asset>
    <created>2026-05-10T14:03:27.412158</created>
    <modified>2026-05-10T14:03:27.412160</modified>
    <up_axis>Y_UP</up_axis>
  </asset>
  <library_effects>
    <effect id="6beabb6ba0c54d96ab70a6ae5bee6951" name="6beabb6ba0c54d96ab70a6ae5bee6951">
      <profile_COMMON>
        <technique sid="common">
          <phong>
            <emission>
              <color>0.0 0.0 0.0 1.0</color>
            </emission>
            <ambient>
              <color>0.0 0.0 0.0 1.0</color>
            </ambient>
            <diffuse>
              <color>0.3137254901960784 0.3137254901960784 0.3333333333333333 1.0</color>
            </diffuse>
            <specular>
              <color>0.0 0.0 0.0 1.0</color>
            </specular>
            <shininess>
              <float>0.0</float>
            </shininess>
            <reflective>
              <color>0.0 0.0 0.0 1.0</color>
            </reflective>
            <reflectivity>
              <float>0.0</float>
            </reflectivity>
            <transparent>
              <color>0.0 0.0 0.0 1.0</color>
            </transparent>
            <transparency>
              <float>1.0</float>
            </transparency>
          </phong>
        </technique>
        <extra>
          <technique profile="GOOGLEEARTH">
            <double_sided>0</double_sided>
          </technique>
        </extra>
      </profile_COMMON>
    </effect>
  </library_effects>
  <library_geometries>
    <geometry id="245c600cf6d44b6192fbe8d31e011b52" name="48c2f87adf4841149f4bf4c96f889635">
      <mesh>
        <source id="verts-array">
          <float_array count="330" id="verts-array-array">0 0.05 0.04 0 -0.05 0.04 0 -0.05 -0.04 0 0.05 -0.04 0.3 0.035 0.03 0.3 -0.035 0.03 0.3 -0.035 -0.03 0.3 0.035 -0.03 0 0 0 0.3 0 0 0.3 0 -0.02 0.34 0 -0.02 0.34 0 0.02 0.3 0 0.02 0.338637 0.01035276 -0.02 0.338637 0.01035276 0.02 0.334641 0.02 -0.02 0.334641 0.02 0.02 0.3282843 0.02828427 -0.02 0.3282843 0.02828427 0.02 0.32 0.03464102 -0.02 0.32 0.03464102 0.02 0.3103528 0.03863703 -0.02 0.3103528 0.03863703 0.02 0.3 0.04 -0.02 0.3 0.04 0.02 0.2896472 0.03863703 -0.02 0.2896472 0.03863703 0.02 0.28 0.03464102 -0.02 0.28 0.03464102 0.02 0.2717157 0.02828427 -0.02 0.2717157 0.02828427 0.02 0.265359 0.02 -0.02 0.265359 0.02 0.02 0.261363 0.01035276 -0.02 0.261363 0.01035276 0.02 0.26 4.898587e-18 -0.02 0.26 4.898587e-18 0.02 0.261363 -0.01035276 -0.02 0.261363 -0.01035276 0.02 0.265359 -0.02 -0.02 0.265359 -0.02 0.02 0.2717157 -0.02828427 -0.02 0.2717157 -0.02828427 0.02 0.28 -0.03464102 -0.02 0.28 -0.03464102 0.02 0.2896472 -0.03863703 -0.02 0.2896472 -0.03863703 0.02 0.3 -0.04 -0.02 0.3 -0.04 0.02 0.3103528 -0.03863703 -0.02 0.3103528 -0.03863703 0.02 0.32 -0.03464102 -0.02 0.32 -0.03464102 0.02 0.3282843 -0.02828427 -0.02 0.3282843 -0.02828427 0.02 0.334641 -0.02 -0.02 0.334641 -0.02 0.02 0.338637 -0.01035276 -0.02 0.338637 -0.01035276 0.02 0 0 -0.045 0.0425 0 -0.045 0.0425 0 0.045 0 0 0.045 0.04105185 0.01099981 -0.045 0.04105185 0.01099981 0.045 0.03680608 0.02125 -0.045 0.03680608 0.02125 0.045 0.03005204 0.03005204 -0.045 0.03005204 0.03005204 0.045 0.02125 0.03680608 -0.045 0.02125 0.03680608 0.045 0.01099981 0.04105185 -0.045 0.01099981 0.04105185 0.045 2.602374e-18 0.0425 -0.045 2.602374e-18 0.0425 0.045 -0.01099981 0.04105185 -0.045 -0.01099981 0.04105185 0.045 -0.02125 0.03680608 -0.045 -0.02125 0.03680608 0.045 -0.03005204 0.03005204 -0.045 -0.03005204 0.03005204 0.045 -0.03680608 0.02125 -0.045 -0.03680608 0.02125 0.045 -0.04105185 0.01099981 -0.045 -0.04105185 0.01099981 0.045 -0.0425 5.204749e-18 -0.045 -0.0425 5.204749e-18 0.045 -0.04105185 -0.01099981 -0.045 -0.04105185 -0.01099981 0.045 -0.03680608 -0.02125 -0.045 -0.03680608 -0.02125 0.045 -0.03005204 -0.03005204 -0.045 -0.03005204 -0.03005204 0.045 -0.02125 -0.03680608 -0.045 -0.02125 -0.03680608 0.045 -0.01099981 -0.04105185 -0.045 -0.01099981 -0.04105185 0.045 -7.807123e-18 -0.0425 -0.045 -7.807123e-18 -0.0425 0.045 0.01099981 -0.04105185 -0.045 0.01099981 -0.04105185 0.045 0.02125 -0.03680608 -0.045 0.02125 -0.03680608 0.045 0.03005204 -0.03005204 -0.045 0.03005204 -0.03005204 0.045 0.03680608 -0.02125 -0.045 0.03680608 -0.02125 0.045 0.04105185 -0.01099981 -0.045 0.04105185 -0.01099981 0.045</float_array>
          <technique_common>
            <accessor count="110" source="#verts-array-array" stride="3">
              <param type="float" name="X"/>
              <param type="float" name="Y"/>
              <param type="float" name="Z"/>
            </accessor>
          </technique_common>
        </source>
        <source id="normals-array">
          <float_array count="330" id="normals-array-array">-0.5554719 0.5909741 0.5849792 -0.5554719 -0.5909741 0.5849792 -0.5554719 -0.5909741 -0.5849792 -0.5554719 0.5909741 -0.5849792 0.5991443 0.5630107 0.5692496 0.5991443 -0.5630107 0.5692496 0.5991443 -0.5630107 -0.5692496 0.5991443 0.5630107 -0.5692496 -1 0 0 1 0 0 0 0 -1 0.7342544 1.553968e-16 -0.6788744 0.7342544 1.504895e-16 0.6788744 0 0 1 0.7092353 0.190039 -0.6788744 0.7092353 0.190039 0.6788744 0.635883 0.3671272 -0.6788744 0.635883 0.3671272 0.6788744 0.5191963 0.5191963 -0.6788744 0.5191963 0.5191963 0.6788744 0.3671272 0.635883 -0.6788744 0.3671272 0.635883 0.6788744 0.190039 0.7092353 -0.6788744 0.190039 0.7092353 0.6788744 2.355488e-16 0.7342544 -0.6788744 2.355488e-16 0.7342544 0.6788744 -0.190039 0.7092353 -0.6788744 -0.190039 0.7092353 0.6788744 -0.3671272 0.635883 -0.6788744 -0.3671272 0.635883 0.6788744 -0.5191963 0.5191963 -0.6788744 -0.5191963 0.5191963 0.6788744 -0.635883 0.3671272 -0.6788744 -0.635883 0.3671272 0.6788744 -0.7092353 0.190039 -0.6788744 -0.7092353 0.190039 0.6788744 -0.7342544 -9.16023e-17 -0.6788744 -0.7342544 -9.16023e-17 0.6788744 -0.7092353 -0.190039 -0.6788744 -0.7092353 -0.190039 0.6788744 -0.635883 -0.3671272 -0.6788744 -0.635883 -0.3671272 0.6788744 -0.5191963 -0.5191963 -0.6788744 -0.5191963 -0.5191963 0.6788744 -0.3671272 -0.635883 -0.6788744 -0.3671272 -0.635883 0.6788744 -0.190039 -0.7092353 -0.6788744 -0.190039 -0.7092353 0.6788744 -6.543022e-18 -0.7342544 -0.6788744 2.617209e-17 -0.7342544 0.6788744 0.190039 -0.7092353 -0.6788744 0.190039 -0.7092353 0.6788744 0.3671272 -0.635883 -0.6788744 0.3671272 -0.635883 0.6788744 0.5191963 -0.5191963 -0.6788744 0.5191963 -0.5191963 0.6788744 0.635883 -0.3671272 -0.6788744 0.635883 -0.3671272 0.6788744 0.7092353 -0.190039 -0.6788744 0.7092353 -0.190039 0.6788744 0 0 -1 0.7342544 -8.015202e-17 -0.6788744 0.7342544 -6.543022e-17 0.6788744 0 0 1 0.7092353 0.190039 -0.6788744 0.7092353 0.190039 0.6788744 0.635883 0.3671272 -0.6788744 0.635883 0.3671272 0.6788744 0.5191963 0.5191963 -0.6788744 0.5191963 0.5191963 0.6788744 0.3671272 0.635883 -0.6788744 0.3671272 0.635883 0.6788744 0.190039 0.7092353 -0.6788744 0.190039 0.7092353 0.6788744 2.159197e-16 0.7342544 -0.6788744 1.897476e-16 0.7342544 0.6788744 -0.190039 0.7092353 -0.6788744 -0.190039 0.7092353 0.6788744 -0.3671272 0.635883 -0.6788744 -0.3671272 0.635883 0.6788744 -0.5191963 0.5191963 -0.6788744 -0.5191963 0.5191963 0.6788744 -0.635883 0.3671272 -0.6788744 -0.635883 0.3671272 0.6788744 -0.7092353 0.190039 -0.6788744 -0.7092353 0.190039 0.6788744 -0.7342544 3.925813e-16 -0.6788744 -0.7342544 3.664092e-16 0.6788744 -0.7092353 -0.190039 -0.6788744 -0.7092353 -0.190039 0.6788744 -0.635883 -0.3671272 -0.6788744 -0.635883 -0.3671272 0.6788744 -0.5191963 -0.5191963 -0.6788744 -0.5191963 -0.5191963 0.6788744 -0.3671272 -0.635883 -0.6788744 -0.3671272 -0.635883 0.6788744 -0.190039 -0.7092353 -0.6788744 -0.190039 -0.7092353 0.6788744 -3.00979e-16 -0.7342544 -0.6788744 -2.94436e-16 -0.7342544 0.6788744 0.190039 -0.7092353 -0.6788744 0.190039 -0.7092353 0.6788744 0.3671272 -0.635883 -0.6788744 0.3671272 -0.635883 0.6788744 0.5191963 -0.5191963 -0.6788744 0.5191963 -0.5191963 0.6788744 0.635883 -0.3671272 -0.6788744 0.635883 -0.3671272 0.6788744 0.7092353 -0.190039 -0.6788744 0.7092353 -0.190039 0.6788744</float_array>
          <technique_common>
            <accessor count="110" source="#normals-array-array" stride="3">
              <param type="float" name="X"/>
              <param type="float" name="Y"/>
              <param type="float" name="Z"/>
            </accessor>
          </technique_common>
        </source>
        <vertices id="verts-array-vertices">
          <input semantic="POSITION" source="#verts-array"/>
        </vertices>
        <triangles count="208" material="material0">
          <input offset="0" semantic="VERTEX" source="#verts-array-vertices"/>
          <input offset="1" semantic="NORMAL" source="#normals-array"/>
          <p>0 0 1 1 5 5 0 0 5 5 4 4 1 1 2 2 6 6 1 1 6 6 5 5 2 2 3 3 7 7 2 2 7 7 6 6 3 3 0 0 4 4 3 3 4 4 7 7 8 8 1 1 0 0 8 8 2 2 1 1 8 8 3 3 2 2 8 8 0 0 3 3 9 9 4 4 5 5 9 9 5 5 6 6 9 9 6 6 7 7 9 9 7 7 4 4 11 11 10 10 14 14 11 11 14 14 12 12 12 12 14 14 15 15 12 12 15 15 13 13 14 14 10 10 16 16 14 14 16 16 15 15 15 15 16 16 17 17 15 15 17 17 13 13 16 16 10 10 18 18 16 16 18 18 17 17 17 17 18 18 19 19 17 17 19 19 13 13 18 18 10 10 20 20 18 18 20 20 19 19 19 19 20 20 21 21 19 19 21 21 13 13 20 20 10 10 22 22 20 20 22 22 21 21 21 21 22 22 23 23 21 21 23 23 13 13 22 22 10 10 24 24 22 22 24 24 23 23 23 23 24 24 25 25 23 23 25 25 13 13 24 24 10 10 26 26 24 24 26 26 25 25 25 25 26 26 27 27 25 25 27 27 13 13 26 26 10 10 28 28 26 26 28 28 27 27 27 27 28 28 29 29 27 27 29 29 13 13 28 28 10 10 30 30 28 28 30 30 29 29 29 29 30 30 31 31 29 29 31 31 13 13 30 30 10 10 32 32 30 30 32 32 31 31 31 31 32 32 33 33 31 31 33 33 13 13 32 32 10 10 34 34 32 32 34 34 33 33 33 33 34 34 35 35 33 33 35 35 13 13 34 34 10 10 36 36 34 34 36 36 35 35 35 35 36 36 37 37 35 35 37 37 13 13 36 36 10 10 38 38 36 36 38 38 37 37 37 37 38 38 39 39 37 37 39 39 13 13 38 38 10 10 40 40 38 38 40 40 39 39 39 39 40 40 41 41 39 39 41 41 13 13 40 40 10 10 42 42 40 40 42 42 41 41 41 41 42 42 43 43 41 41 43 43 13 13 42 42 10 10 44 44 42 42 44 44 43 43 43 43 44 44 45 45 43 43 45 45 13 13 44 44 10 10 46 46 44 44 46 46 45 45 45 45 46 46 47 47 45 45 47 47 13 13 46 46 10 10 48 48 46 46 48 48 47 47 47 47 48 48 49 49 47 47 49 49 13 13 48 48 10 10 50 50 48 48 50 50 49 49 49 49 50 50 51 51 49 49 51 51 13 13 50 50 10 10 52 52 50 50 52 52 51 51 51 51 52 52 53 53 51 51 53 53 13 13 52 52 10 10 54 54 52 52 54 54 53 53 53 53 54 54 55 55 53 53 55 55 13 13 54 54 10 10 56 56 54 54 56 56 55 55 55 55 56 56 57 57 55 55 57 57 13 13 56 56 10 10 58 58 56 56 58 58 57 57 57 57 58 58 59 59 57 57 59 59 13 13 58 58 10 10 11 11 58 58 11 11 59 59 59 59 11 11 12 12 59 59 12 12 13 13 61 61 60 60 64 64 61 61 64 64 62 62 62 62 64 64 65 65 62 62 65 65 63 63 64 64 60 60 66 66 64 64 66 66 65 65 65 65 66 66 67 67 65 65 67 67 63 63 66 66 60 60 68 68 66 66 68 68 67 67 67 67 68 68 69 69 67 67 69 69 63 63 68 68 60 60 70 70 68 68 70 70 69 69 69 69 70 70 71 71 69 69 71 71 63 63 70 70 60 60 72 72 70 70 72 72 71 71 71 71 72 72 73 73 71 71 73 73 63 63 72 72 60 60 74 74 72 72 74 74 73 73 73 73 74 74 75 75 73 73 75 75 63 63 74 74 60 60 76 76 74 74 76 76 75 75 75 75 76 76 77 77 75 75 77 77 63 63 76 76 60 60 78 78 76 76 78 78 77 77 77 77 78 78 79 79 77 77 79 79 63 63 78 78 60 60 80 80 78 78 80 80 79 79 79 79 80 80 81 81 79 79 81 81 63 63 80 80 60 60 82 82 80 80 82 82 81 81 81 81 82 82 83 83 81 81 83 83 63 63 82 82 60 60 84 84 82 82 84 84 83 83 83 83 84 84 85 85 83 83 85 85 63 63 84 84 60 60 86 86 84 84 86 86 85 85 85 85 86 86 87 87 85 85 87 87 63 63 86 86 60 60 88 88 86 86 88 88 87 87 87 87 88 88 89 89 87 87 89 89 63 63 88 88 60 60 90 90 88 88 90 90 89 89 89 89 90 90 91 91 89 89 91 91 63 63 90 90 60 60 92 92 90 90 92 92 91 91 91 91 92 92 93 93 91 91 93 93 63 63 92 92 60 60 94 94 92 92 94 94 93 93 93 93 94 94 95 95 93 93 95 95 63 63 94 94 60 60 96 96 94 94 96 96 95 95 95 95 96 96 97 97 95 95 97 97 63 63 96 96 60 60 98 98 96 96 98 98 97 97 97 97 98 98 99 99 97 97 99 99 63 63 98 98 60 60 100 100 98 98 100 100 99 99 99 99 100 100 101 101 99 99 101 101 63 63 100 100 60 60 102 102 100 100 102 102 101 101 101 101 102 102 103 103 101 101 103 103 63 63 102 102 60 60 104 104 102 102 104 104 103 103 103 103 104 104 105 105 103 103 105 105 63 63 104 104 60 60 106 106 104 104 106 106 105 105 105 105 106 106 107 107 105 105 107 107 63 63 106 106 60 60 108 108 106 106 108 108 107 107 107 107 108 108 109 109 107 107 109 109 63 63 108 108 60 60 61 61 108 108 61 61 109 109 109 109 61 61 62 62 109 109 62 62 63 63</p>
        </triangles>
      </mesh>
    </geometry>
  </library_geometries>
  <library_materials>
    <material id="28a27145b65e445c860c58499f6c15bb" name="defaultmaterial">
      <instance_effect url="#6beabb6ba0c54d96ab70a6ae5bee6951"/>
    </material>
  </library_materials>
  <library_visual_scenes>
    <visual_scene id="scene">
      <node id="node0" name="node0">
        <instance_geometry url="#245c600cf6d44b6192fbe8d31e011b52">
          <bind_material>
            <technique_common>
              <instance_material symbol="material0" target="#28a27145b65e445c860c58499f6c15bb"/>
            </technique_common>
          </bind_material>
        </instance_geometry>
      </node>
    </visual_scene>
  </library_visual_scenes>
  <scene>
    <instance_visual_scene url="#scene"/>
  </scene>
</COLLADA>
